<svg xmlns="http://www.w3.org/2000/svg" version="1.1" xmlns:xlink="http://www.w3.org/1999/xlink"
    xmlns:svgjs="http://svgjs.dev/svgjs" viewBox="0 0 800 800">
    <defs>
        <linearGradient x1="50%" y1="0%" x2="50%" y2="100%" id="ffflurry-grad" gradientTransform="rotate(270)">
            <stop stop-color="hsl(0, 0%, 0%)" stop-opacity="1" offset="0%"></stop>
            <stop stop-color="hsl(0, 0%, 54%)" stop-opacity="1" offset="45%"></stop>
            <stop stop-color="hsl(0, 0%, 100%)" stop-opacity="1" offset="100%"></stop>
        </linearGradient>
    </defs>
    <rect width="100%" height="100%" fill="hsl(0, 0%, 0%)"></rect>
    <g fill="url(#ffflurry-grad)">
        <rect width="261" height="3" x="643.5" y="406.5" rx="1.5" transform="rotate(45, 774, 408)" opacity="0.54">
        </rect>
        <rect width="221" height="3" x="271.5" y="597.5" rx="1.5" transform="rotate(45, 382, 599)" opacity="0.24">
        </rect>
        <rect width="660" height="3" x="-162" y="644.5" rx="1.5" transform="rotate(45, 168, 646)" opacity="0.83"></rect>
        <rect width="206" height="3" x="369" y="410.5" rx="1.5" transform="rotate(45, 472, 412)" opacity="0.55"></rect>
        <rect width="616" height="3" x="444" y="215.5" rx="1.5" transform="rotate(45, 752, 217)" opacity="0.47"></rect>
        <rect width="379" height="3" x="69.5" y="646.5" rx="1.5" transform="rotate(45, 259, 648)" opacity="0.69"></rect>
        <rect width="310" height="3" x="48" y="132.5" rx="1.5" transform="rotate(45, 203, 134)" opacity="0.26"></rect>
        <rect width="148" height="3" x="-50" y="50.5" rx="1.5" transform="rotate(45, 24, 52)" opacity="0.63"></rect>
        <rect width="492" height="3" x="36" y="480.5" rx="1.5" transform="rotate(45, 282, 482)" opacity="0.42"></rect>
        <rect width="547" height="3" x="-228.5" y="431.5" rx="1.5" transform="rotate(45, 45, 433)" opacity="0.15">
        </rect>
        <rect width="591" height="3" x="272.5" y="338.5" rx="1.5" transform="rotate(45, 568, 340)" opacity="0.25">
        </rect>
        <rect width="687" height="3" x="183.5" y="220.5" rx="1.5" transform="rotate(45, 527, 222)" opacity="0.48">
        </rect>
        <rect width="211" height="3" x="-77.5" y="631.5" rx="1.5" transform="rotate(45, 28, 633)" opacity="0.91"></rect>
        <rect width="244" height="3" x="-64" y="760.5" rx="1.5" transform="rotate(45, 58, 762)" opacity="0.29"></rect>
        <rect width="410" height="3" x="-13" y="203.5" rx="1.5" transform="rotate(45, 192, 205)" opacity="0.14"></rect>
        <rect width="111" height="3" x="541.5" y="437.5" rx="1.5" transform="rotate(45, 597, 439)" opacity="0.74">
        </rect>
        <rect width="317" height="3" x="205.5" y="95.5" rx="1.5" transform="rotate(45, 364, 97)" opacity="0.85"></rect>
        <rect width="483" height="3" x="251.5" y="760.5" rx="1.5" transform="rotate(45, 493, 762)" opacity="0.19">
        </rect>
        <rect width="419" height="3" x="-123.5" y="241.5" rx="1.5" transform="rotate(45, 86, 243)" opacity="0.31">
        </rect>
        <rect width="218" height="3" x="654" y="531.5" rx="1.5" transform="rotate(45, 763, 533)" opacity="0.32"></rect>
        <rect width="420" height="3" x="423" y="253.5" rx="1.5" transform="rotate(45, 633, 255)" opacity="0.91"></rect>
        <rect width="318" height="3" x="395" y="624.5" rx="1.5" transform="rotate(45, 554, 626)" opacity="0.54"></rect>
        <rect width="506" height="3" x="-219" y="539.5" rx="1.5" transform="rotate(45, 34, 541)" opacity="0.58"></rect>
        <rect width="307" height="3" x="190.5" y="333.5" rx="1.5" transform="rotate(45, 344, 335)" opacity="0.57">
        </rect>
        <rect width="490" height="3" x="517" y="70.5" rx="1.5" transform="rotate(45, 762, 72)" opacity="0.55"></rect>
        <rect width="418" height="3" x="-70" y="739.5" rx="1.5" transform="rotate(45, 139, 741)" opacity="0.49"></rect>
        <rect width="112" height="3" x="12" y="111.5" rx="1.5" transform="rotate(45, 68, 113)" opacity="0.85"></rect>
        <rect width="320" height="3" x="-64" y="606.5" rx="1.5" transform="rotate(45, 96, 608)" opacity="0.31"></rect>
        <rect width="232" height="3" x="558" y="42.5" rx="1.5" transform="rotate(45, 674, 44)" opacity="0.84"></rect>
        <rect width="272" height="3" x="155" y="35.5" rx="1.5" transform="rotate(45, 291, 37)" opacity="0.22"></rect>
        <rect width="295" height="3" x="109.5" y="561.5" rx="1.5" transform="rotate(45, 257, 563)" opacity="0.13">
        </rect>
        <rect width="90" height="3" x="639" y="315.5" rx="1.5" transform="rotate(45, 684, 317)" opacity="0.35"></rect>
        <rect width="303" height="3" x="284.5" y="32.5" rx="1.5" transform="rotate(45, 436, 34)" opacity="0.34"></rect>
        <rect width="389" height="3" x="5.5" y="24.5" rx="1.5" transform="rotate(45, 200, 26)" opacity="0.17"></rect>
        <rect width="83" height="3" x="420.5" y="694.5" rx="1.5" transform="rotate(45, 462, 696)" opacity="0.19"></rect>
        <rect width="145" height="3" x="31.5" y="509.5" rx="1.5" transform="rotate(45, 104, 511)" opacity="0.58"></rect>
        <rect width="245" height="3" x="142.5" y="747.5" rx="1.5" transform="rotate(45, 265, 749)" opacity="0.59">
        </rect>
        <rect width="255" height="3" x="9.5" y="45.5" rx="1.5" transform="rotate(45, 137, 47)" opacity="0.29"></rect>
        <rect width="359" height="3" x="542.5" y="427.5" rx="1.5" transform="rotate(45, 722, 429)" opacity="0.07">
        </rect>
        <rect width="50" height="3" x="358" y="759.5" rx="1.5" transform="rotate(45, 383, 761)" opacity="0.34"></rect>
        <rect width="703" height="3" x="128.5" y="123.5" rx="1.5" transform="rotate(45, 480, 125)" opacity="0.54">
        </rect>
        <rect width="487" height="3" x="106.5" y="546.5" rx="1.5" transform="rotate(45, 350, 548)" opacity="0.72">
        </rect>
        <rect width="78" height="3" x="601" y="380.5" rx="1.5" transform="rotate(45, 640, 382)" opacity="0.74"></rect>
        <rect width="158" height="3" x="296" y="444.5" rx="1.5" transform="rotate(45, 375, 446)" opacity="0.43"></rect>
        <rect width="381" height="3" x="101.5" y="230.5" rx="1.5" transform="rotate(45, 292, 232)" opacity="0.90">
        </rect>
        <rect width="506" height="3" x="-73" y="539.5" rx="1.5" transform="rotate(45, 180, 541)" opacity="1.00"></rect>
        <rect width="710" height="3" x="322" y="155.5" rx="1.5" transform="rotate(45, 677, 157)" opacity="0.75"></rect>
        <rect width="128" height="3" x="512" y="72.5" rx="1.5" transform="rotate(45, 576, 74)" opacity="0.68"></rect>
        <rect width="180" height="3" x="168" y="390.5" rx="1.5" transform="rotate(45, 258, 392)" opacity="0.21"></rect>
        <rect width="94" height="3" x="704" y="718.5" rx="1.5" transform="rotate(45, 751, 720)" opacity="0.84"></rect>
        <rect width="259" height="3" x="-80.5" y="694.5" rx="1.5" transform="rotate(45, 49, 696)" opacity="0.18"></rect>
        <rect width="86" height="3" x="275" y="734.5" rx="1.5" transform="rotate(45, 318, 736)" opacity="0.56"></rect>
        <rect width="372" height="3" x="501" y="455.5" rx="1.5" transform="rotate(45, 687, 457)" opacity="0.18"></rect>
        <rect width="585" height="3" x="276.5" y="512.5" rx="1.5" transform="rotate(45, 569, 514)" opacity="0.22">
        </rect>
        <rect width="818" height="3" x="-22" y="216.5" rx="1.5" transform="rotate(45, 387, 218)" opacity="0.98"></rect>
        <rect width="218" height="3" x="559" y="515.5" rx="1.5" transform="rotate(45, 668, 517)" opacity="0.25"></rect>
        <rect width="368" height="3" x="21" y="750.5" rx="1.5" transform="rotate(45, 205, 752)" opacity="0.84"></rect>
        <rect width="240" height="3" x="642" y="307.5" rx="1.5" transform="rotate(45, 762, 309)" opacity="0.82"></rect>
        <rect width="71" height="3" x="18.5" y="326.5" rx="1.5" transform="rotate(45, 54, 328)" opacity="0.44"></rect>
        <rect width="293" height="3" x="324.5" y="520.5" rx="1.5" transform="rotate(45, 471, 522)" opacity="0.25">
        </rect>
        <rect width="192" height="3" x="33" y="177.5" rx="1.5" transform="rotate(45, 129, 179)" opacity="0.78"></rect>
        <rect width="380" height="3" x="-160" y="183.5" rx="1.5" transform="rotate(45, 30, 185)" opacity="0.55"></rect>
        <rect width="438" height="3" x="-64" y="445.5" rx="1.5" transform="rotate(45, 155, 447)" opacity="0.95"></rect>
        <rect width="44" height="3" x="218" y="271.5" rx="1.5" transform="rotate(45, 240, 273)" opacity="0.82"></rect>
        <rect width="241" height="3" x="162.5" y="140.5" rx="1.5" transform="rotate(45, 283, 142)" opacity="0.44">
        </rect>
        <rect width="260" height="3" x="-49" y="28.5" rx="1.5" transform="rotate(45, 81, 30)" opacity="0.10"></rect>
        <rect width="715" height="3" x="106.5" y="313.5" rx="1.5" transform="rotate(45, 464, 315)" opacity="0.20">
        </rect>
        <rect width="261" height="3" x="86.5" y="78.5" rx="1.5" transform="rotate(45, 217, 80)" opacity="0.26"></rect>
        <rect width="385" height="3" x="415.5" y="745.5" rx="1.5" transform="rotate(45, 608, 747)" opacity="0.28">
        </rect>
        <rect width="300" height="3" x="201" y="667.5" rx="1.5" transform="rotate(45, 351, 669)" opacity="0.82"></rect>
        <rect width="446" height="3" x="-54" y="294.5" rx="1.5" transform="rotate(45, 169, 296)" opacity="0.14"></rect>
        <rect width="381" height="3" x="257.5" y="620.5" rx="1.5" transform="rotate(45, 448, 622)" opacity="0.49">
        </rect>
        <rect width="352" height="3" x="507" y="588.5" rx="1.5" transform="rotate(45, 683, 590)" opacity="0.13"></rect>
        <rect width="108" height="3" x="613" y="667.5" rx="1.5" transform="rotate(45, 667, 669)" opacity="0.93"></rect>
        <rect width="411" height="3" x="-68.5" y="117.5" rx="1.5" transform="rotate(45, 137, 119)" opacity="0.72">
        </rect>
        <rect width="273" height="3" x="577.5" y="370.5" rx="1.5" transform="rotate(45, 714, 372)" opacity="0.60">
        </rect>
        <rect width="339" height="3" x="-4.5" y="371.5" rx="1.5" transform="rotate(45, 165, 373)" opacity="0.10"></rect>
    </g>
</svg>